<svg width="40" height="40" viewBox="0 0 40 40" fill="none" xmlns="http://www.w3.org/2000/svg">
  <g clip-path="url(#clip0_17906_113093)">
    <path d="M20 40C31.0457 40 40 31.0457 40 20C40 8.9543 31.0457 0 20 0C8.9543 0 0 8.9543 0 20C0 31.0457 8.9543 40 20 40Z" fill="#EBF4FF"/>
    <path d="M19.9404 8L19.7812 8.54043V24.221L19.9404 24.3797L27.219 20.0773L19.9404 8Z" fill="#479DFF"/>
    <path d="M19.9428 8L12.6641 20.0773L19.9428 24.3797V16.7688V8Z" fill="#99C9FF"/>
    <path d="M19.9412 25.7572L19.8516 25.8666V31.4522L19.9412 31.714L27.2243 21.457L19.9412 25.7572Z" fill="#005FCC"/>
    <path d="M19.9428 31.715V25.7582L12.6641 21.458L19.9428 31.715Z" fill="#99C9FF"/>
    <path d="M19.9453 24.3795L27.2239 20.077L19.9453 16.7686V24.3795Z" fill="#70B3FF"/>
    <path d="M12.6641 20.077L19.9428 24.3795V16.7686L12.6641 20.077Z" fill="#005FCC"/>
  </g>
  <defs>
    <clipPath id="clip0_17906_113093">
      <rect width="40" height="40" fill="white"/>
    </clipPath>
  </defs>
</svg>
