<svg width="40" height="40" viewBox="0 0 40 40" fill="none" xmlns="http://www.w3.org/2000/svg">
  <g clip-path="url(#clip0_17906_113101)">
    <path d="M39.3971 24.8381C36.726 35.5525 25.8741 42.0731 15.1584 39.4012C4.44722 36.7301 -2.07335 25.8775 0.598972 15.1639C3.26894 4.44838 14.1209 -2.07268 24.8332 0.59847C35.5481 3.26961 42.0683 14.1234 39.3968 24.8383L39.397 24.8381H39.3971Z" fill="#F3BA2F"/>
    <path fill-rule="evenodd" clip-rule="evenodd" d="M19.9967 12.6927L14.8178 17.8716L14.8179 17.8713L11.8047 14.858L19.9967 6.66602L28.1914 14.8605L25.178 17.8738L19.9967 12.6927ZM9.6775 16.9854L6.66406 19.9992L9.67729 23.012L12.6907 19.9986L9.6775 16.9854ZM14.8182 22.1275L19.997 27.306L25.1783 22.125L28.1932 25.1367L28.1917 25.1383L19.997 33.3327L11.805 25.1407L11.8008 25.1364L14.8182 22.1275ZM30.3181 16.9873L27.3047 20.0007L30.318 23.014L33.3313 20.0005L30.3181 16.9873Z" fill="white"/>
    <path d="M23.0569 19.9991H23.0582L20.0007 16.9414L17.7408 19.2007L17.4811 19.4604L16.9457 19.996L16.9414 20.0002L16.9457 20.0046L20.0007 23.06L23.0584 20.0023L23.0599 20.0006L23.0571 19.9991" fill="white"/>
  </g>
  <defs>
    <clipPath id="clip0_17906_113101">
      <rect width="40" height="40" fill="white"/>
    </clipPath>
  </defs>
</svg>
