<svg width="40" height="40" viewBox="0 0 40 40" fill="none" xmlns="http://www.w3.org/2000/svg">
  <g clip-path="url(#clip0_17906_113018)">
    <path d="M39.3971 24.8381C36.726 35.5525 25.8741 42.0731 15.1584 39.4012C4.44722 36.7301 -2.07335 25.8775 0.598972 15.1639C3.26894 4.44838 14.1209 -2.07268 24.8332 0.59847C35.5481 3.26961 42.0683 14.1234 39.3968 24.8383L39.397 24.8381H39.3971Z" fill="url(#paint0_linear_17906_113018)"/>
    <path fill-rule="evenodd" clip-rule="evenodd" d="M28.8197 17.1506C29.2178 14.489 27.1914 13.0583 24.4206 12.1039L25.3195 8.49857L23.1248 7.95171L22.2498 11.4621C21.6728 11.3182 21.0803 11.1826 20.4914 11.0482L21.3728 7.51463L19.1795 6.96777L18.2801 10.5719C17.8027 10.4632 17.3337 10.3558 16.8787 10.2426L16.8813 10.2312L13.8548 9.47547L13.271 11.8195C13.271 11.8195 14.8992 12.1928 14.8649 12.2157C15.7536 12.4375 15.9144 13.0258 15.8877 13.4922L14.8637 17.5995C14.9249 17.615 15.0043 17.6375 15.0919 17.6727L15.0283 17.6568H15.0282C14.974 17.6432 14.9177 17.6291 14.8599 17.6153L13.4247 23.3691C13.3161 23.6391 13.0405 24.0443 12.4191 23.8904C12.4411 23.9223 10.824 23.4923 10.824 23.4923L9.73438 26.0045L12.5904 26.7165C12.9031 26.7949 13.2122 26.8755 13.5181 26.9552L13.5183 26.9553C13.7321 27.011 13.9442 27.0663 14.1551 27.1202L13.2469 30.7669L15.4391 31.3138L16.3384 27.7058C16.9373 27.8684 17.5185 28.0183 18.0874 28.1597L17.1911 31.7506L19.3858 32.2975L20.2939 28.6577C24.0363 29.3659 26.8503 29.0804 28.0347 25.6954C28.9891 22.9701 27.9872 21.3982 26.0183 20.3731C27.4524 20.0423 28.5325 19.0992 28.8205 17.1509L28.8198 17.1504L28.8197 17.1506ZM23.8053 24.1819C23.183 26.6823 19.2692 25.6486 17.4785 25.1756C17.3175 25.1331 17.1736 25.0951 17.0508 25.0646L18.2559 20.2334C18.4056 20.2708 18.5884 20.3118 18.7956 20.3583C20.6478 20.774 24.4428 21.6256 23.8054 24.1819H23.8053ZM19.1645 18.1165C20.6574 18.5149 23.9142 19.3841 24.4814 17.1115H24.4816C25.0608 14.7873 21.8957 14.0866 20.3499 13.7443C20.176 13.7058 20.0226 13.6719 19.8973 13.6406L18.8047 18.0222C18.9079 18.048 19.0289 18.0803 19.1645 18.1165Z" fill="white"/>
  </g>
  <defs>
    <linearGradient id="paint0_linear_17906_113018" x1="0" y1="1.73039e-06" x2="0" y2="40" gradientUnits="userSpaceOnUse">
      <stop stop-color="#FCC538"/>
      <stop offset="1" stop-color="#F7931A"/>
    </linearGradient>
    <clipPath id="clip0_17906_113018">
      <rect width="40" height="40" fill="white"/>
    </clipPath>
  </defs>
</svg>
