<?xml version="1.0" encoding="UTF-8"?>
<svg width="98px" height="100px" viewBox="0 0 98 100" version="1.1" xmlns="http://www.w3.org/2000/svg" xmlns:xlink="http://www.w3.org/1999/xlink">
    <title>iconly-glass-shield</title>
    <defs>
        <linearGradient x1="17.0386867%" y1="-6.38120317%" x2="94.525542%" y2="92.8462284%" id="linearGradient-1">
            <stop stop-color="#72DC60" offset="0%"></stop>
            <stop stop-color="#72DC60" stop-opacity="0.35" offset="100%"></stop>
        </linearGradient>
        <path d="M29.1510435,80.966753 C28.6504482,80.8898741 28.1675811,80.6980775 27.7518206,80.3948665 L14.3540361,70.6263494 C10.552597,67.8522047 7.69085064,64.9548336 5.59812602,61.7700678 C1.01694812,54.804525 -0.847213392,46.480389 0.357300163,38.327829 L4.31158215,11.4934116 C4.7674063,8.39623565 7.1928595,5.92630286 10.3408606,5.33950113 L38.5028002,0.134163321 C40.17706,-0.188367418 41.9485743,0.0758034755 43.4800072,0.870818723 L68.9260321,13.9916735 C71.7755591,15.4555746 73.3811097,18.5250222 72.922381,21.6175935 L68.9648939,48.4718311 C67.7662897,56.6131796 63.5864494,64.0406962 57.1979002,69.3890807 C54.2668438,71.8421962 50.6891601,73.7862898 46.2640301,75.3364794 L30.6524286,80.8204029 C30.1675583,80.9932802 29.6522397,81.0397278 29.1510435,80.966753" id="path-2"></path>
        <linearGradient x1="28.0810486%" y1="8.34560249%" x2="76.1511937%" y2="84.8880817%" id="linearGradient-4">
            <stop stop-color="#FFFFFF" stop-opacity="0.25" offset="0%"></stop>
            <stop stop-color="#FFFFFF" stop-opacity="0" offset="100%"></stop>
        </linearGradient>
        <linearGradient x1="71.6759622%" y1="-13.817554%" x2="47.9936283%" y2="88.7775044%" id="linearGradient-5">
            <stop stop-color="#9BF763" offset="0%"></stop>
            <stop stop-color="#26AB5B" offset="100%"></stop>
        </linearGradient>
        <linearGradient x1="76.1656565%" y1="-3.91312247%" x2="23.6940868%" y2="55.3869795%" id="linearGradient-6">
            <stop stop-color="#9BF763" offset="0%"></stop>
            <stop stop-color="#26AB5B" offset="100%"></stop>
        </linearGradient>
        <filter x="-70.6%" y="-51.1%" width="241.2%" height="202.1%" filterUnits="objectBoundingBox" id="filter-7">
            <feGaussianBlur stdDeviation="8" in="SourceGraphic"></feGaussianBlur>
        </filter>
        <linearGradient x1="92.6468695%" y1="39.1791898%" x2="-14.5977399%" y2="32.1897914%" id="linearGradient-8">
            <stop stop-color="#FFFFFF" offset="0%"></stop>
            <stop stop-color="#FFFFFF" stop-opacity="0.2" offset="100%"></stop>
        </linearGradient>
    </defs>
    <g id="Page-1" stroke="none" stroke-width="1" fill="none" fill-rule="evenodd">
        <g id="iconly-glass-shield" transform="translate(0.000000, 12.000000)">
            <path d="M54.1510435,87.966753 C53.6504482,87.8898741 53.1675811,87.6980775 52.7518206,87.3948665 L39.3540361,77.6263494 C35.552597,74.8522047 32.6908506,71.9548336 30.598126,68.7700678 C26.0169481,61.804525 24.1527866,53.480389 25.3573002,45.327829 L29.3115821,18.4934116 C29.7674063,15.3962356 32.1928595,12.9263029 35.3408606,12.3395011 L63.5028002,7.13416332 C65.17706,6.81163258 66.9485743,7.07580348 68.4800072,7.87081872 L93.9260321,20.9916735 C96.7755591,22.4555746 98.3811097,25.5250222 97.922381,28.6175935 L93.9648939,55.4718311 C92.7662897,63.6131796 88.5864494,71.0406962 82.1979002,76.3890807 C79.2668438,78.8421962 75.6891601,80.7862898 71.2640301,82.3364794 L55.6524286,87.8204029 C55.1675583,87.9932802 54.6522397,88.0397278 54.1510435,87.966753" id="Path" fill="url(#linearGradient-1)" fill-rule="nonzero"></path>
            <g id="Clipped" transform="translate(25.000000, 7.000000)">
                <mask id="mask-3" fill="white">
                    <use xlink:href="#path-2"></use>
                </mask>
                <g id="Path"></g>
                <path d="M29,81.9881589 C29.47381,82.0726459 29.9168949,81.6959749 29.9898021,81.1470109 C30.0626225,80.5979463 29.7376647,80.0843864 29.2638546,80 L29,81.9881589 Z M28.2053,79.90395 L28.7947,79.09615 L28.7947,79.09605 L28.2053,79.90395 Z M14.79485,71.09605 L14.20515,71.90365 L14.20545,71.90395 L14.79485,71.09605 Z M6.0821,61.7746 L6.9179,61.2257 L6.9177,61.2254 L6.0821,61.7746 Z M0.00535,38.42695 L0.99465,38.57305 L0.99465,38.57265 L0.00535,38.42695 Z M4.0053,11.42715 L4.9947,11.57285 L4.9947,11.57265 L4.0053,11.42715 Z M10.59165,4.99165 L10.40975,4.00835 L10.40835,4.00865 L10.59165,4.99165 Z M38.4054,0.0083 L38.5872,0.9917 L38.5946,0.9903 L38.4054,0.0083 Z M43.7305,1.05565 L43.2695,1.94315 L43.272,1.94435 L43.7305,1.05565 Z M68.72925,14.0553 L68.27075,14.944 L68.27205,14.9447 L68.72925,14.0553 Z M72.9945,21.5734 L72.0055,21.4266 L72.0055,21.4277 L72.9945,21.5734 Z M68.99465,48.57285 L68.00535,48.42715 L68.00535,48.42725 L68.99465,48.57285 Z M57.1789,69.11665 L57.8209,69.88335 L57.8211,69.88325 L57.1789,69.11665 Z M46.6658,74.97185 L46.335,74.02815 L46.3342,74.02845 L46.6658,74.97185 Z M30.668,80.9717 L30.3364,80.0283 L30.332,80.0299 L30.668,80.9717 Z M29,80.010627 C28.5224455,79.9306138 28.0788835,80.3110785 28.0092383,80.8604152 C27.9396805,81.409752 28.2704296,81.9199868 28.7479841,82 L29,80.010627 Z M29,80.3301373 C28.6731201,80.2846885 28.3640105,80.1722492 28.1025065,80 L27,81.3648152 C27.515058,81.704245 28.1077441,81.9156072 28.7156753,82 L29,80.3301373 Z M29,79.4373582 L15.2147122,70 L14,71.5625451 L27.7852878,81 L29,79.4373582 Z M15,69.4170448 C11.3413195,66.7549712 8.62140525,64 6.64414414,61 L5,62.0759822 C7.13275503,65.3118673 10.0330461,68.2301224 13.8400409,71 L15,69.4170448 Z M6,60.9066751 C1.81312867,54.1822042 0.112265224,46.1515162 1.21182569,38.2908234 L-0.65355229,38 C-1.82165262,46.3509721 -0.0129355219,54.8732334 4.4243373,62 L6,60.9066751 Z M1.00307085,38 L5,11.2903429 L2.99682791,11 L-1,37.7096571 L1.00307085,38 Z M4.92579564,11 C5.30604953,8.44401534 7.33569234,6.38262256 10,5.89149407 L9.64320176,4 C6.18957774,4.63659103 3.50541551,7.32283778 3,10.7200423 L4.92579564,11 Z M10.3703289,6 L39,0.920953856 L38.6296711,-1 L10,4.07904614 L10.3703289,6 Z M38.4041285,1.30217383 C39.9483584,0.998846829 41.5926328,1.24668718 43.0156776,2 L44,0.0689559187 C42.1579856,-0.905977092 40.0253403,-1.23230385 38,-0.834497237 L38.4041285,1.30217383 Z M43,1.79115608 L68.0942384,15 L69,13.2088439 L43.9057616,-1.59872116e-13 L43,1.79115608 Z M68,14.8497724 C70.6881326,16.1732223 72.1825049,18.9358693 71.7556965,21.6946685 L73.9038568,22 C74.4718486,18.3331099 72.4833342,14.7182177 68.9930625,13 L68,14.8497724 Z M71.9984822,21 L68,47.7098691 L70.002125,48 L74,21.2901309 L71.9984822,21 Z M68.0775503,48 C66.9498868,55.956438 63.0173472,63.2200293 57,68.4533015 L58.2478531,70 C64.6251859,64.4534941 68.8020882,56.7464325 70,48.2937638 L68.0775503,48 Z M56.7040448,69 C53.8621281,71.4650932 50.3702152,73.4398442 46,75.0266081 L46.6677601,77 C51.2160178,75.3485193 54.934521,73.2623174 58,70.6031783 L56.7040448,69 Z M45.3470031,74 L30,79.2066611 L30.6529969,81 L46,75.7933389 L45.3470031,74 Z M30.3209378,80 C29.9918149,80.1094641 29.6387429,80.1401065 29.2914309,80.09287 L29,81.9588507 C29.6639046,82.0490808 30.3507478,81.992133 31,81.7760334 L30.3209378,80 Z" id="Shape" fill="url(#linearGradient-4)" fill-rule="nonzero" mask="url(#mask-3)"></path>
            </g>
            <path d="M50,10.1970182 L35.7420416,12.8368802 C32.6040687,13.4227054 30.1863419,15.8889488 29.7319699,18.9814985 L25.7902845,45.7758328 C25.1860525,49.8721117 25.3563797,54.0116704 26.2566374,58 C25.8234314,57.8907512 25.3983125,57.7690083 24.9806815,57.6347713 C19.0455897,55.7296647 14.0650686,51.7593267 10.9600429,46.449217 L0.733386271,28.9756116 C-0.447302238,26.9591572 -0.182626256,24.383765 1.38476275,22.5655177 L15.4269868,6.32473415 C16.2557591,5.35156054 17.4155011,4.67430815 18.6829706,4.41860807 L39.7004002,0.118294787 C42.0512341,-0.366198001 44.4253308,0.666707597 45.6018459,2.68210244 L50,10.1970182 Z" id="Path" fill="url(#linearGradient-5)" fill-rule="nonzero"></path>
            <g id="Group" opacity="0.5" transform="translate(25.000000, 12.000000)" fill="url(#linearGradient-6)" fill-rule="nonzero">
                <path d="M21.3310663,46.386052 C21.7182231,46.3674294 22.0925248,46.2516675 22.4232401,46.0603079 C22.7524489,45.8663312 23.0338531,45.5955489 23.2379264,45.2651744 L29.8469085,34.6751707 C31.7222337,31.675829 32.9136321,28.846003 33.4853788,26.023324 C34.7306076,19.8701235 33.6987921,13.5416695 30.5772338,8.20323175 L30.5772338,8.20323175 C27.0539565,2.17606077 20.1411743,-0.992897392 13.2881479,0.277464159 L10.3645367,0.8194314 C7.20812939,1.40941468 4.77602156,3.89326344 4.31906609,7.00766249 L0.3539982,33.9922759 C0.145003841,35.4108127 0.0282040145,36.834584 0.0015901245,38.2555368 C-0.0913074161,43.228972 3.89806448,47.227591 8.85517768,46.9899267 L8.85517768,46.9899267 L21.3310663,46.386052 Z" id="Path" filter="url(#filter-7)"></path>
            </g>
            <g id="Group" transform="translate(46.000000, 38.000000)" fill="url(#linearGradient-8)" fill-rule="nonzero">
                <path d="M9.25112179,18.96637 C8.46761442,18.8524146 7.72863588,18.4553835 7.21530346,17.7906602 L0.612327585,9.23156332 C-0.406131936,7.90329244 -0.12575037,6.03826531 1.24233556,5.06126702 C2.61102188,4.08034937 4.54967729,4.36028961 5.57283985,5.68522902 L10.3243168,11.8409748 L26.0540028,0.585260697 C27.4267918,-0.394971068 29.3654472,-0.115128812 30.3846072,1.20932068 C31.4071693,2.53827744 31.1261874,4.40722393 29.7587018,5.38020488 L11.5458078,18.4146222 C10.8591631,18.9066978 10.0346292,19.0803254 9.25112179,18.96637 Z" id="Path"></path>
            </g>
        </g>
    </g>
</svg>