<?xml version="1.0" encoding="UTF-8"?>
<svg width="115px" height="115px" viewBox="0 0 115 115" version="1.1" xmlns="http://www.w3.org/2000/svg" xmlns:xlink="http://www.w3.org/1999/xlink">
    <title>iconly-glass-discount</title>
    <defs>
        <linearGradient x1="-0.915095744%" y1="-1.30840384%" x2="79.9869931%" y2="91.2288991%" id="linearGradient-1">
            <stop stop-color="#FFFFFF" stop-opacity="0.4" offset="0%"></stop>
            <stop stop-color="#FFFFFF" stop-opacity="0" offset="100%"></stop>
        </linearGradient>
        <linearGradient x1="55.6822546%" y1="6.0697596e-06%" x2="55.6822546%" y2="111.35527%" id="linearGradient-2">
            <stop stop-color="#FFB37F" offset="0%"></stop>
            <stop stop-color="#FF7B0D" offset="100%"></stop>
        </linearGradient>
        <linearGradient x1="49.9999571%" y1="-7.31134185e-05%" x2="49.9999571%" y2="100%" id="linearGradient-3">
            <stop stop-color="#FFB37F" offset="0%"></stop>
            <stop stop-color="#FF7B0D" offset="100%"></stop>
        </linearGradient>
        <filter x="-35.8%" y="-35.8%" width="171.6%" height="171.6%" filterUnits="objectBoundingBox" id="filter-4">
            <feGaussianBlur stdDeviation="8" in="SourceGraphic"></feGaussianBlur>
        </filter>
        <linearGradient x1="92.8967921%" y1="18.0582143%" x2="-18.4777514%" y2="21.6889286%" id="linearGradient-5">
            <stop stop-color="#FFFFFF" offset="0%"></stop>
            <stop stop-color="#FFFFFF" stop-opacity="0.2" offset="100%"></stop>
        </linearGradient>
        <path d="M6.04366248,26.944 C5.39242399,27.6345 4.49709626,28 3.52033868,28 C2.58434611,28 1.68901838,27.6345 1.03777989,26.944 C-0.345926629,25.5632 -0.345926629,23.2888 1.03777989,21.908 L21.9564377,1.0326 C23.3401442,-0.3442 25.5785136,-0.3442 26.9622201,1.0326 C28.3459266,2.4135 28.3459266,4.6919 26.9622201,6.0727 L6.04366248,26.944 Z M24.5200332,28 C22.5600293,28 21,26.4400124 21,24.4800557 C21,22.5640257 22.5600293,21 24.5200332,21 C26.4399707,21 28,22.5640257 28,24.4800557 C28,26.4400124 26.4399707,28 24.5200332,28 Z M7,3.48000675 C7,1.55996567 5.44006919,4.92939023e-14 3.52003319,4.92939023e-14 C1.59999719,4.92939023e-14 3.55271368e-14,1.55996567 3.55271368e-14,3.48000675 C3.55271368e-14,5.44397389 1.59999719,7 3.52003319,7 C5.44006919,7 7,5.44397389 7,3.48000675 Z" id="path-6"></path>
        <linearGradient x1="16.8650027%" y1="12.7152778%" x2="78.8826572%" y2="89.5253472%" id="linearGradient-8">
            <stop stop-color="#FFFFFF" stop-opacity="0.25" offset="0%"></stop>
            <stop stop-color="#FFFFFF" stop-opacity="0" offset="100%"></stop>
        </linearGradient>
    </defs>
    <g id="Page-1" stroke="none" stroke-width="1" fill="none" fill-rule="evenodd">
        <g id="iconly-glass-discount" transform="translate(10.000000, 10.000000)">
            <path d="M94.9990752,54.744798 C95.0384372,57.8735491 93.8199202,60.844068 91.6159457,63.0668971 C91.6112262,63.0715832 91.6067076,63.0763691 91.602189,63.0812547 C91.5845163,63.1006972 91.5738724,63.1107674 91.5565009,63.1272188 C91.5427443,63.1402802 91.5247703,63.1573298 91.4956504,63.1862443 L88.5834599,66.0768993 C87.3417474,67.309356 86.6316236,68.9829088 86.6316236,70.7490879 L86.6316236,74.9385036 C86.6316236,81.4215391 81.3190499,86.6986396 74.7875576,86.6986396 L70.5627627,86.6986396 C68.7883569,86.6986396 67.1022144,87.3988696 65.8599998,88.6318249 L62.9068407,91.5631596 C60.5857841,93.8709376 57.5575157,95 54.5251304,95 C51.4930463,95 48.4637738,93.8710373 46.1422151,91.6067308 L43.1494931,88.632124 C41.9070776,87.3988696 40.2209352,86.6986396 38.446429,86.6986396 L34.2217345,86.6986396 C27.6902422,86.6986396 22.3776685,81.4215391 22.3776685,74.9385036 L22.3776685,70.7490879 C22.3776685,68.9814133 21.6667414,67.3117489 20.4319574,66.0424012 L20.4233218,66.0337269 L17.4724722,63.1453651 C12.8685162,58.5783656 12.8299574,51.1140308 17.4326081,46.5100406 L19,45 L19.1286596,44.8683746 C20.4136477,43.5220671 22.8543742,40.0755074 22.8543742,38.3277856 L22.8543742,34.1593549 C22.8543742,27.6521994 28.165276,22.3628461 34.6956081,22.3628461 L38.9192923,22.3628461 C40.6950809,22.3628461 42.3803182,21.6505599 43.6209307,20.4141423 L46.5748895,17.4704196 C51.1756365,12.8500169 58.6902869,12.847715 63.3343017,17.4364917 L66.3263081,20.4141423 C67.567021,21.6505599 69.2522583,22.3628461 71.0279464,22.3628461 L75.2517311,22.3628461 C81.7820632,22.3628461 87.0929649,27.6521994 87.0929649,34.1593549 L87.0929649,38.3727226 C87.0929649,40.1377753 87.8032201,41.8175578 89.0443346,43.0544758 L92,46 C94.2391192,48.1835452 94.9990752,51.6177418 94.9990752,54.744798 Z" id="Combined-Shape" stroke="url(#linearGradient-1)" fill-opacity="0.35" fill="#FFCBB9" fill-rule="nonzero" stroke-linecap="round" stroke-linejoin="round"></path>
            <path d="M73,22.4271088 L73,20.5521765 C73,13.8036353 67.5105186,8.31935899 60.7604823,8.31935899 L56.5721708,8.31935899 C54.9456836,8.31935899 53.4005257,7.66483521 52.261915,6.5265148 L49.2935435,3.5628336 C44.4953118,-1.19369179 36.7287085,-1.19369179 31.9711912,3.59942226 L29.0434346,6.5265148 C27.9049234,7.66483521 26.3597656,8.31935899 24.7331788,8.31935899 L20.5449668,8.31935899 C13.7949305,8.31935899 8.30544914,13.8036353 8.30544914,20.5521765 L8.30544914,24.698891 C8.30544914,26.3657408 7.65484431,27.9105288 6.51628336,29.0489089 L3.54790193,32.0207044 C-1.20965523,36.8137686 -1.16899056,44.5828099 3.58855665,49.3352533 L6.51628336,52.2217249 C7.65484431,53.4006264 8.30544914,54.945514 8.30544914,56.5757253 L8.30544914,60.7590782 C8.30544914,67.5076195 13.7949305,73 20.5449668,73 L22.4071797,73 L22.4071797,70.6834153 C22.4071797,69.053204 21.756545,67.5083164 20.6180338,66.3294149 L17.6902772,63.4429433 C12.9327599,58.6904999 12.8920455,50.9214586 17.6496623,46.1283944 L20.6180338,43.156599 C21.756545,42.0182188 22.4071797,40.4734308 22.4071797,38.806581 L22.4071797,34.6598666 C22.4071797,27.9113253 27.8966611,22.4271088 34.6466974,22.4271088 L38.8350089,22.4271088 C40.4614961,22.4271088 42.006654,21.7724954 43.1452647,20.6342148 L46.0729217,17.7071222 C50.8305386,12.914058 58.5971419,12.914058 63.3952741,17.6705834 L66.3637451,20.6342148 C67.5022563,21.7724954 69.0474141,22.4271088 70.6739013,22.4271088 L73,22.4271088 Z" id="Path" fill="url(#linearGradient-2)" fill-rule="nonzero"></path>
            <g id="Group" opacity="0.5" transform="translate(14.000000, 14.000000)" fill="url(#linearGradient-3)" fill-rule="nonzero">
                <path d="M60.5118227,14.9007768 L63.431108,17.819957 C65.7421386,20.0903642 66.9990463,23.1717872 66.9990463,26.4152544 C67.0396429,29.658821 65.7827353,32.7442157 63.512202,35.0511623 C63.4851045,35.0809498 63.4581063,35.1070636 63.4310088,35.1331773 C63.4175096,35.1462839 63.4040105,35.1592911 63.3905114,35.1727948 L60.5118227,38.0514638 C59.3766057,39.1866675 58.7278535,40.7273789 58.7278535,42.3531835 L58.7278535,46.5252281 C58.7278535,53.2555269 53.2542555,58.7330606 46.5237498,58.7330606 L42.3475568,58.7330606 C40.7257758,58.7330606 39.1850887,59.3776633 38.0497724,60.5129662 L35.1305863,63.4321463 C32.7383625,65.828257 29.6163917,67 26.4944209,67 C23.3724501,67 20.2504793,65.828257 17.8583547,63.4767283 L14.8984727,60.5129662 C13.7632557,59.3776633 12.2225687,58.7330606 10.6006883,58.7330606 L8.28141928,58.7330606 L8.28141928,56.4227381 C8.28141928,54.7969335 7.63266714,53.256222 6.49745016,52.0805073 L3.57816479,49.2018383 C-1.16558707,44.4622415 -1.20618371,36.7142013 3.53766741,31.9340935 L6.49745016,28.9703314 C7.63266714,27.8350285 8.28141928,26.2944163 8.28141928,24.6320723 L8.28141928,20.4965671 C8.28141928,13.7662683 13.7550173,8.29687652 20.485523,8.29687652 L24.661716,8.29687652 C26.2834971,8.29687652 27.8241841,7.64403266 28.9595004,6.50882905 L31.8786865,3.58964893 C36.6225376,-1.19045886 44.3666688,-1.19045886 49.1509181,3.55320883 L52.1107008,6.50882905 C53.2460171,7.64403266 54.7867041,8.29687652 56.4084852,8.29687652 L58.7278535,8.29687652 L58.7278535,10.6070998 C58.7278535,12.2248617 59.3766057,13.7654739 60.5118227,14.9007768 Z" id="Path" filter="url(#filter-4)"></path>
            </g>
            <g id="Group" transform="translate(41.000000, 41.000000)">
                <path d="M6.04366248,26.944 C5.39242399,27.6345 4.49709626,28 3.52033868,28 C2.58434611,28 1.68901838,27.6345 1.03777989,26.944 C-0.345926629,25.5632 -0.345926629,23.2888 1.03777989,21.908 L21.9564377,1.0326 C23.3401442,-0.3442 25.5785136,-0.3442 26.9622201,1.0326 C28.3459266,2.4135 28.3459266,4.6919 26.9622201,6.0727 L6.04366248,26.944 Z M24.5200332,28 C22.5600293,28 21,26.4400124 21,24.4800557 C21,22.5640257 22.5600293,21 24.5200332,21 C26.4399707,21 28,22.5640257 28,24.4800557 C28,26.4400124 26.4399707,28 24.5200332,28 Z M7,3.48000675 C7,1.55996567 5.44006919,4.92939023e-14 3.52003319,4.92939023e-14 C1.59999719,4.92939023e-14 3.55271368e-14,1.55996567 3.55271368e-14,3.48000675 C3.55271368e-14,5.44397389 1.59999719,7 3.52003319,7 C5.44006919,7 7,5.44397389 7,3.48000675 Z" id="Shape" fill="url(#linearGradient-5)"></path>
                <g id="Clipped">
                    <mask id="mask-7" fill="white">
                        <use xlink:href="#path-6"></use>
                    </mask>
                    <g id="Shape"></g>
                    <path d="M6.64565,27.6415 L6.36275,27.3585 L6.35435,27.3673 L6.64565,27.6415 Z M1.3543,27.64145 L1.6457,27.36715 L1.6371,27.35855 L1.3543,27.64145 Z M1.64135,22.64145 L1.35865,22.35855 L1.35865,22.35855 L1.64135,22.64145 Z M22.6414,1.64165 L22.359,1.35835 L22.3586,1.35875 L22.6414,1.64165 Z M27.3586,1.64165 L27.6414,1.35875 L27.641,1.35835 L27.3586,1.64165 Z M27.3586,6.3585 L27.6413,6.6415 L27.6414,6.6415 L27.3586,6.3585 Z M4,29 C5.1503647,29 6.21981854,28.5311525 7,27.6340307 L6.37822452,27 C5.77053905,27.6989943 4.93154243,28.0752514 4,28.0752514 L4,29 Z M1,27.6340307 C1.78980432,28.5291874 2.87399812,29 4,29 L4,28.0752514 C3.10166799,28.0752514 2.24936819,27.701075 1.63091198,27 L1,27.6340307 Z M1.34203063,22 C-0.447343543,23.6462272 -0.447343543,26.3536657 1.34203063,28 L2,27.3938842 C0.574457873,26.0822578 0.574457873,23.9176351 2,22.6060087 L1.34203063,22 Z M22.4200189,1 L1,22.4194541 L1.57998107,23 L23,1.58054586 L22.4200189,1 Z M28,1.33958855 C26.3413871,-0.446529518 23.658505,-0.446529518 22,1.33958855 L22.6091037,2 C23.9308597,0.576607028 26.0690325,0.576607028 27.3907885,2 L28,1.33958855 Z M27.6580762,7 C29.4473079,5.35486978 29.4473079,2.64513022 27.6580762,1 L27,1.60556547 C28.4255214,2.91623261 28.4255214,5.08366036 27,6.39432751 L27.6580762,7 Z M6.57998107,28 L28,6.58075682 L27.4200189,6 L6,27.4192432 L6.57998107,28 Z M21,25 C21,27.2256222 22.7746812,29 25,29 L25,28.1947457 C23.2188797,28.1947457 21.8048897,26.7805179 21.8048897,25 L21,25 Z M25,21 C22.7773977,21 21,22.7940713 21,25 L21.8048897,25 C21.8048897,23.2491483 23.2161632,21.8135455 25,21.8135455 L25,21 Z M29,25 C29,22.7971221 27.2072681,21 25,21 L25,21.8135455 C26.7578653,21.8135455 28.1867853,23.2461992 28.1867853,25 L29,25 Z M25,29 C27.2099111,29 29,27.2226025 29,25 L28.1867853,25 C28.1867853,26.7835376 26.7551207,28.1947457 25,28.1947457 L25,29 Z M4,0.813545533 C5.75817027,0.813545533 7.18678526,2.24233488 7.18678526,4 L8,4 C8,1.79264758 6.20696315,1.59872116e-14 4,1.59872116e-14 L4,0.813545533 Z M0.804889705,4 C0.804889705,2.24833477 2.25379179,0.813545533 4,0.813545533 L4,1.59872116e-14 C1.82156601,1.59872116e-14 -6.57252031e-14,1.78664768 -6.57252031e-14,4 L0.804889705,4 Z M4,7.19476598 C2.25650829,7.19476598 0.804889705,5.78137896 0.804889705,4 L-6.57252031e-14,4 C-6.57252031e-14,6.23291394 1.81884951,8 4,8 L4,7.19476598 Z M7.18678526,4 C7.18678526,5.78731756 5.75542567,7.19476598 4,7.19476598 L4,8 C6.20970775,8 8,6.22697534 8,4 L7.18678526,4 Z" id="Shape" fill="url(#linearGradient-8)" fill-rule="nonzero" mask="url(#mask-7)"></path>
                </g>
            </g>
        </g>
    </g>
</svg>