<svg width="99" height="78" viewBox="0 0 99 78" fill="none" xmlns="http://www.w3.org/2000/svg">
    <g clip-path="url(#clip0_1_277)">
        <path
            d="M51.168 76.5H21.832C15.816 76.5 10.7387 74.4271 7.16716 70.8993C3.59607 67.3719 1.5 62.3602 1.5 56.4247V21.5753C1.5 15.6372 3.5961 10.6255 7.16713 7.09883C10.7386 3.57169 15.8159 1.5 21.832 1.5H51.168C57.1841 1.5 62.2614 3.57169 65.8329 7.09883C69.4039 10.6255 71.5 15.6372 71.5 21.5753V56.4247C71.5 62.3602 69.4039 67.3719 65.8328 70.8993C62.2613 74.4271 57.184 76.5 51.168 76.5Z"
            fill="#FFCBB9" fill-opacity="0.35" stroke="url(#paint0_linear_1_277)"
            stroke-linecap="round" stroke-linejoin="round" />
        <path
            d="M71.9841 20.6754C71.9947 20.973 72 21.273 72 21.5753V56.4247C72 57.1519 71.9691 57.866 71.9084 58.5659L88.7123 66.2006C89.7245 66.7406 90.8071 67 91.8898 67C93.189 67 94.4781 66.6188 95.6312 65.8724C97.7411 64.5012 99 62.1241 99 59.5195V19.4855C99 16.8809 97.7411 14.5038 95.6312 13.1273C93.5213 11.7509 90.928 11.6291 88.7174 12.7938L71.9841 20.6754Z"
            fill="url(#paint1_linear_1_277)" />
        <g opacity="0.25" filter="url(#filter0_f_1_277)">
            <path
                d="M74.3465 23.5052C75.7769 22.764 77.455 22.8415 78.8202 23.7174C80.1854 24.5933 81 26.106 81 27.7635V53.2397C81 54.8972 80.1854 56.4099 78.8202 57.2824C78.074 57.7574 77.2399 58 76.3993 58C75.6987 58 74.9982 57.8349 74.3433 57.4913L37 40.8051L74.3465 23.5052Z"
                fill="#FC5D00" />
        </g>
    </g>
    <defs>
        <filter id="filter0_f_1_277" x="28" y="14" width="62" height="53"
            filterUnits="userSpaceOnUse" color-interpolation-filters="sRGB">
            <feFlood flood-opacity="0" result="BackgroundImageFix" />
            <feBlend mode="normal" in="SourceGraphic" in2="BackgroundImageFix" result="shape" />
            <feGaussianBlur stdDeviation="4.5" result="effect1_foregroundBlur_1_277" />
        </filter>
        <linearGradient id="paint0_linear_1_277" x1="0.792867" y1="0.483195" x2="67.5665"
            y2="74.9573" gradientUnits="userSpaceOnUse">
            <stop stop-color="white" stop-opacity="0.4" />
            <stop offset="1" stop-color="white" stop-opacity="0" />
        </linearGradient>
        <linearGradient id="paint1_linear_1_277" x1="68.94" y1="12" x2="68.94" y2="67"
            gradientUnits="userSpaceOnUse">
            <stop stop-color="#FFB37F" />
            <stop offset="1" stop-color="#FF7B0D" />
        </linearGradient>
        <clipPath id="clip0_1_277">
            <rect width="99" height="78" fill="white" />
        </clipPath>
    </defs>
</svg>
    