<svg
  width="100%"
  height="100%"
  viewBox="0 0 512 512"
  fill="none"
  xmlns="http://www.w3.org/2000/svg"
>
  <path
    opacity="0.16"
    d="M154.501 236.43C164.069 200.726 200.769 164.027 236.473 154.458L459.065 94.8061C494.768 85.2379 515.955 106.425 506.387 142.128L446.735 364.72C437.166 400.424 400.467 437.124 364.763 446.692L142.171 506.344C106.468 515.912 85.2808 494.725 94.849 459.022L154.501 236.43Z"
    fill="#6366F1"
  />
  <path
    d="M65.266 147.192C74.8342 111.489 111.534 74.7888 147.238 65.2206L369.829 5.56835C405.533 -3.99982 426.72 17.1871 417.152 52.8906L357.499 275.482C347.931 311.186 311.231 347.886 275.528 357.454L52.9359 417.106C17.2324 426.674 -3.95447 405.488 5.6137 369.784L65.266 147.192Z"
    fill="#6366F1"
  />
</svg>
