<svg width="111" height="18" viewBox="0 0 111 18" fill="none" xmlns="http://www.w3.org/2000/svg">
  <g clip-path="url(#a)">
    <path d="M37.452 11.544c-.365-.402-.804-.732-1.132-1.172-2.813-3.919-6.832-5.86-11.289-6.922-1.534-.366-3.287-.33-4.858 0-4.494.88-8.585 2.747-12.129 5.677-1.023.843-1.9 1.905-2.63 3.113.402-.146.84-.293 1.242-.476 1.169-.512 2.338-1.062 3.544-1.501.511-.184 1.132-.184 1.716-.147.22 0 .548.33.585.55.037.22-.183.622-.365.659-3.105.952-5.809 2.783-8.622 4.358-.986.55-1.607.403-2.045-.586C.409 12.643-.066 10.043.007 7.37c0-.073.146-.183.366-.403 2.155.806 1.497 3.15 2.557 5.018.256-.44.438-.806.657-1.099 4.603-5.677 10.704-8.68 17.791-9.779 1.06-.183 2.229-.11 3.325.073 4.017.695 7.597 2.38 10.557 5.2.95.916 1.644 2.125 2.338 3.26.292.44.292 1.062.402 1.575l-.548.33Z" fill="#6C737F"/>
  </g>
  <g clip-path="url(#b)">
    <path d="M47.013 12.528a51.555 51.555 0 0 1-.172-.719 49.82 49.82 0 0 0-.218-1.03 82.916 82.916 0 0 1-.218-1.173c-.073-.416-.14-.817-.203-1.203a39.223 39.223 0 0 1-.155-1.078A9.125 9.125 0 0 1 46 6.512a9.758 9.758 0 0 1 .125-1.203c.041-.25.078-.484.109-.703.041-.219.078-.37.109-.453a.546.546 0 0 1 .155-.016c.084 0 .167-.005.25-.015.093-.01.176-.016.249-.016.083-.01.14-.015.171-.015.499 0 .971.099 1.418.296a6.64 6.64 0 0 1 1.277.75c.405.303.8.641 1.184 1.016.384.375.768.74 1.153 1.094.394.354.794.677 1.2.969.404.28.835.494 1.292.64v-.234c.01-.115.016-.235.016-.36V7.92a3.11 3.11 0 0 0 .015-.25c0-.657-.041-1.297-.124-1.922a58.243 58.243 0 0 0-.28-1.875 58.527 58.527 0 0 1-.281-1.875 15.067 15.067 0 0 1-.125-1.953c.073 0 .161.005.265.015.114 0 .228.016.343.047a.825.825 0 0 1 .311.125.388.388 0 0 1 .187.25c.042.75.135 1.505.28 2.266.146.75.297 1.505.452 2.265.156.75.291 1.506.405 2.266.125.75.187 1.495.187 2.234 0 .136-.005.282-.015.438 0 .156-.021.307-.063.453a.766.766 0 0 1-.171.344c-.083.094-.208.14-.374.14a3.17 3.17 0 0 1-1.495-.359 8.316 8.316 0 0 1-1.34-.922 16.898 16.898 0 0 1-1.262-1.203A13.665 13.665 0 0 0 50.362 7.2a7.492 7.492 0 0 0-1.34-.922 3.034 3.034 0 0 0-1.48-.375c0 .583.042 1.146.125 1.688.083.53.171 1.062.265 1.593.103.532.197 1.063.28 1.594a10.1 10.1 0 0 1 .125 1.594c0 .198-.073.333-.219.406a.935.935 0 0 1-.451.11 2.35 2.35 0 0 1-.39-.032c-.114-.031-.202-.14-.264-.328Zm9.984-3.672c0-.562.068-1.125.203-1.687a4.828 4.828 0 0 1 .639-1.516A3.62 3.62 0 0 1 58.99 4.56c.478-.28 1.054-.422 1.73-.422.384 0 .721.073 1.012.22.29.135.535.317.732.546.197.23.343.5.436.813.104.302.156.62.156.953 0 .531-.125 1.047-.374 1.547a4.38 4.38 0 0 1-.981 1.328 4.21 4.21 0 0 1-1.402.86c-.53.187-1.07.228-1.62.124.01.302.109.547.296.734.197.178.43.313.7.407.27.093.551.156.842.187.29.021.55.031.779.031.239 0 .462-.02.67-.062.207-.042.415-.089.623-.14.207-.053.415-.1.623-.141.218-.042.446-.063.685-.063.093 0 .187.005.28.016.094.01.182.036.265.078a.41.41 0 0 1 .203.172.474.474 0 0 1 .078.281.656.656 0 0 1-.219.5 2.046 2.046 0 0 1-.56.328 3.564 3.564 0 0 1-.732.219c-.27.042-.535.078-.795.11-.249.02-.483.03-.7.03a9.551 9.551 0 0 1-.468.016c-.665 0-1.262-.104-1.791-.312a3.922 3.922 0 0 1-1.34-.89 4.015 4.015 0 0 1-.841-1.376 5.48 5.48 0 0 1-.28-1.797Zm1.652-1.015c0 .364.046.63.14.796.104.167.348.25.732.25.27 0 .535-.046.794-.14a2.5 2.5 0 0 0 .701-.422 1.97 1.97 0 0 0 .514-.625c.125-.24.187-.5.187-.781 0-.157-.015-.318-.047-.485a1.12 1.12 0 0 0-.155-.453.943.943 0 0 0-.327-.344c-.125-.093-.291-.14-.499-.14a1.72 1.72 0 0 0-.857.219 2.01 2.01 0 0 0-.638.546 2.372 2.372 0 0 0-.405.75 2.51 2.51 0 0 0-.14.829Zm6.729-2.016c-.01-.01-.016-.026-.016-.047a.268.268 0 0 1-.015-.11c0-.197.083-.333.249-.406.166-.083.327-.125.483-.125.02 0 .041.006.062.016h.11a.47.47 0 0 0 .14.016l2.18 1.843c.374-.541.675-.963.904-1.265a8.22 8.22 0 0 1 .56-.656c.135-.146.234-.23.296-.25a.47.47 0 0 1 .156-.047h.234c.093 0 .187.01.28.031.094.01.171.042.234.094a.433.433 0 0 1 .156.25 11.66 11.66 0 0 0-.499.531c-.156.177-.301.37-.436.578a5.723 5.723 0 0 0-.39.672c-.114.25-.233.531-.358.844.198.146.442.354.732.625.302.26.603.552.904.875.311.312.613.635.903.968.291.323.53.63.717.922.197.292.322.542.374.75.062.209.026.344-.11.407a3.766 3.766 0 0 0-.295.421c-.052.084-.11.11-.172.079-.051-.032-.124-.13-.218-.297a5.356 5.356 0 0 0-.514-.703 18.957 18.957 0 0 0-.997-1.172 26.549 26.549 0 0 0-1.698-1.672l-.124 3.86c0 .01-.02.03-.063.062a5.83 5.83 0 0 0-.14.11 2.156 2.156 0 0 1-.28.172h-.343a5.934 5.934 0 0 1-.218-.189c-.083-.083-.124-.135-.124-.156v-4.36l-2.664-2.671Zm7.648-.5c0-.031.005-.057.016-.078 0-.021.005-.047.015-.078.042-.052.104-.12.187-.203.083-.084.135-.125.156-.125h3.131a5.02 5.02 0 0 0-.047-.547c-.03-.25-.062-.526-.093-.828a9.294 9.294 0 0 1-.016-.938c.01-.333.052-.63.125-.89.083-.271.208-.49.374-.657.176-.177.42-.265.732-.265 0 1.052.073 1.895.218 2.53.145.636.337 1.126.576 1.47.25.343.53.567.841.671.312.105.629.152.95.141a4.87 4.87 0 0 0 .966-.156c.312-.083.587-.14.826-.172.25-.031.447-.005.592.078.145.073.218.255.218.547 0 .219-.052.375-.156.469-.093.093-.28.166-.56.218-.084.01-.224.032-.421.063-.187.02-.4.042-.639.062-.239.021-.493.047-.763.079-.27.02-.525.041-.763.062-.24.02-.457.037-.654.047H78.4a3.7 3.7 0 0 1-.015.266c-.01.125-.016.208-.016.25 0 .458.073.906.218 1.343.146.427.301.855.468 1.282.176.427.337.854.482 1.28.146.428.218.87.218 1.329 0 .083-.01.172-.03.266a.509.509 0 0 1-.094.234.375.375 0 0 1-.203.14c-.083.042-.202.037-.358-.015a1.391 1.391 0 0 1-.888-.672 4.306 4.306 0 0 1-.42-1.219 11.282 11.282 0 0 1-.187-1.515 15.152 15.152 0 0 0-.156-1.485c-.062-.468-.166-.864-.312-1.187-.145-.333-.379-.537-.7-.61L73.4 5.825c-.041 0-.104-.042-.187-.125a1.167 1.167 0 0 1-.156-.203.174.174 0 0 1-.015-.078.218.218 0 0 1-.016-.094Zm17.197 0c0-.031.005-.057.016-.078a.26.26 0 0 1 .016-.078c.041-.052.103-.12.186-.203.084-.084.135-.125.156-.125h3.131a5 5 0 0 0-.047-.547c-.03-.25-.062-.526-.093-.828a9.324 9.324 0 0 1-.016-.938c.01-.333.052-.63.125-.89.083-.271.208-.49.374-.657.177-.177.42-.265.732-.265 0 1.052.073 1.895.218 2.53.145.636.338 1.126.576 1.47.25.343.53.567.841.671a2.7 2.7 0 0 0 .95.141 4.87 4.87 0 0 0 .966-.156c.312-.083.587-.14.826-.172.25-.031.447-.005.592.078.145.073.218.255.218.547 0 .219-.052.375-.156.469-.093.093-.28.166-.56.218-.084.01-.224.032-.421.063-.187.02-.4.042-.638.062-.24.021-.494.047-.764.079-.27.02-.524.041-.763.062-.24.02-.457.037-.654.047h-.437a3.7 3.7 0 0 1-.015.266c-.01.125-.016.208-.016.25 0 .458.073.906.218 1.343.146.427.301.855.468 1.282.176.427.337.854.483 1.28a4.1 4.1 0 0 1 .217 1.329c0 .083-.01.172-.03.266a.509.509 0 0 1-.094.234.374.374 0 0 1-.203.14c-.082.042-.202.037-.358-.015a1.391 1.391 0 0 1-.888-.672 4.306 4.306 0 0 1-.42-1.219 11.282 11.282 0 0 1-.187-1.515 15.18 15.18 0 0 0-.156-1.485 4.287 4.287 0 0 0-.311-1.187c-.146-.333-.38-.537-.702-.61l-3.006-.687c-.041 0-.103-.042-.187-.125a1.17 1.17 0 0 1-.155-.203.176.176 0 0 1-.016-.078.211.211 0 0 1-.016-.094Zm11.013 2.016v-.297c.011-.146.016-.297.016-.453a7.12 7.12 0 0 0 .016-.454c.01-.145.015-.25.015-.312.114-.167.26-.302.436-.406.187-.104.374-.188.561-.25.031.562.119 1.161.265 1.797.145.635.301 1.276.467 1.921.166.636.312 1.266.436 1.891.135.625.203 1.208.203 1.75 0 .469-.239.703-.717.703a.912.912 0 0 1-.732-.36 2.887 2.887 0 0 1-.483-.905 9.515 9.515 0 0 1-.28-1.235 15.518 15.518 0 0 1-.156-1.344 67.488 67.488 0 0 1-.047-1.203v-.843Zm.218-5.86c.198.084.364.219.499.406.135.188.192.36.171.516-.01.146-.124.25-.342.313-.219.052-.582-.01-1.091-.188 0-.281.052-.526.156-.734.114-.209.316-.313.607-.313Zm2.804 5.953c0-1.01.234-1.76.701-2.25.467-.49 1.184-.734 2.15-.734.395 0 .799.036 1.215.11a3.82 3.82 0 0 1 1.168.39c.353.177.639.427.857.75.228.323.343.74.343 1.25a3.53 3.53 0 0 1-.374 1.594 6.55 6.55 0 0 1-.919 1.39c-.364.427-.769.828-1.215 1.204-.436.364-.847.713-1.231 1.046a1.05 1.05 0 0 0-.062.266 3.466 3.466 0 0 0-.016.25c0 .344.099.688.296 1.031.208.354.431.709.67 1.063.239.364.457.74.654 1.125a2.6 2.6 0 0 1 .296 1.203c0 .25-.052.396-.156.437-.103.052-.322.078-.654.078-.207-.083-.415-.28-.623-.593a8.97 8.97 0 0 1-.607-1.125 21.1 21.1 0 0 1-.593-1.516 70.082 70.082 0 0 1-.545-1.687c-.166-.584-.327-1.157-.483-1.72-.145-.572-.275-1.098-.389-1.577-.114-.48-.218-.89-.312-1.235a42.96 42.96 0 0 1-.171-.75Zm1.324.141c0 .156.011.385.031.687.021.292.063.584.125.875.073.292.176.547.312.766a.632.632 0 0 0 .56.313c.322 0 .644-.11.966-.329.332-.218.623-.494.873-.828a4.62 4.62 0 0 0 .623-1.062c.166-.386.249-.735.249-1.047 0-.26-.062-.464-.187-.61a1.21 1.21 0 0 0-.483-.359 1.702 1.702 0 0 0-.608-.172 4.39 4.39 0 0 0-.623-.047c-.592 0-1.049.162-1.37.485-.312.312-.468.755-.468 1.328Z" fill="#6C737F"/>
  </g>
  <defs>
    <clipPath id="a">
      <path fill="#fff" d="M38 16H0V1h38z"/>
    </clipPath>
    <clipPath id="b">
      <path fill="#fff" d="M46 0h65v18H46z"/>
    </clipPath>
  </defs>
</svg>
